 http://www.shotpix.com/images/38268648993687325229.jpeg


Format : AVI
Format/Info : Audio Video Interleave
Format profile : OpenDML
File size : 2.20 GiB
Duration : 1h 32mn
Overall bit rate : 3 392 Kbps
Writing library : VirtualDub build 30091/release

Video
ID : 0
Format : MPEG-4 Visual
Format profile : Advanced Simple@L5
Format settings, BVOP : 1
Format settings, QPel : No
Format settings, GMC : No warppoints
Format settings, Matrix : Default (H.263)
Muxing mode : Packed bitstream
Codec ID : XVID
Codec ID/Hint : XviD
Duration : 1h 32mn
Bit rate : 2 998 Kbps
Width : 1 280 pixels
Height : 544 pixels
Display aspect ratio : 2.35:1
Frame rate : 23.976 fps
Color space : YUV
Chroma subsampling : 4:2:0
Bit depth : 8 bits
Scan type : Progressive
Compression mode : Lossy
Bits/(Pixel*Frame) : 0.180
Stream size : 1.94 GiB (88%)
Writing library : XviD 64

Audio
ID : 1
Format : AC-3
Format/Info : Audio Coding 3
Mode extension : CM (complete main)
Format settings, Endianness : Big
Codec ID : 2000
Duration : 1h 32mn
Bit rate mode : Constant
Bit rate : 384 Kbps
Channel(s) : 6 channels
Channel positions : Front: L C R, Side: L R, LFE
Sampling rate : 48.0 KHz
Bit depth : 16 bits
Compression mode : Lossy
Stream size : 253 MiB (11%)

 
http://www.shotpix.com/images/74209304763986601085.png 
http://www.shotpix.com/images/70393811941803869040.png 
http://www.shotpix.com/images/74996494899594882658.png